<mxfile host="app.diagrams.net" modified="2024-05-24T09:43:47.409Z" agent="Mozilla/5.0 (X11; Linux x86_64) AppleWebKit/537.36 (KHTML, like Gecko) Chrome/124.0.0.0 Safari/537.36" version="24.3.1" etag="av7fwIZPo1cN_jdGMUnW" type="github">
  <diagram name="第 1 页" id="lRwf6gAiUMX4nWtaz0HM">
    <mxGraphModel>
      <root>
        <mxCell id="0" />
        <mxCell id="1" parent="0" />
      </root>
    </mxGraphModel>
  </diagram>
</mxfile>
